<svg width="29" height="32" viewBox="0 0 29 32" fill="none" xmlns="http://www.w3.org/2000/svg">
<rect x="6.5" y="2.50001" width="22" height="29" rx="4.5" stroke="#8B93B1"/>
<circle cx="11" cy="8.00001" r="2" fill="#8B93B1"/>
<line x1="6.6" y1="22.7" x2="12.6" y2="14.7" stroke="#8B93B1"/>
<line x1="17.576" y1="23.265" x2="12.576" y2="15.265" stroke="#8B93B1"/>
<line x1="15.677" y1="19.6183" x2="28.677" y2="8.61831" stroke="#8B93B1"/>
<path fill-rule="evenodd" clip-rule="evenodd" d="M7.1343 29.1882C6.40482 28.5946 5.88054 27.7427 5.71434 26.742L2.43772 7.0122C2.0758 4.83291 3.54906 2.77284 5.72835 2.41092L8.98678 1.86977C9.27835 1.47068 9.58394 1.0818 9.90298 0.703919L5.56452 1.42443C2.84041 1.87684 0.998828 4.45191 1.45124 7.17603L4.72786 26.9058C4.99585 28.5195 6.00873 29.8235 7.35622 30.5244L7.1343 29.1882Z" fill="#8B93B1"/>
</svg>
