<svg
    xmlns="http://www.w3.org/2000/svg"
    viewBox="0 0 32 32"
    id="vector">
    <path
        id="path"
        d="M 23.221 7.594 L 22.485 8.33 L 23.221 7.594 C 22.663 7.036 21.79 6.95 21.134 7.387 L 19.584 8.42 C 19.338 8.303 19.085 8.198 18.826 8.105 L 18.46 6.279 L 17.437 6.484 L 18.46 6.279 C 18.305 5.506 17.627 4.95 16.838 4.95 L 15.162 4.95 C 14.373 4.95 13.694 5.507 13.54 6.28 L 13.175 8.105 C 12.916 8.198 12.662 8.303 12.416 8.42 L 10.866 7.387 C 10.21 6.95 9.337 7.036 8.779 7.594 L 7.594 8.779 C 7.036 9.337 6.95 10.21 7.387 10.866 L 8.42 12.416 C 8.303 12.663 8.198 12.916 8.105 13.175 L 6.28 13.54 C 5.507 13.694 4.95 14.373 4.95 15.162 L 4.95 16.838 C 4.95 17.627 5.506 18.305 6.279 18.46 L 6.483 17.443 L 6.279 18.46 L 8.105 18.826 C 8.198 19.085 8.303 19.338 8.42 19.584 L 7.387 21.134 C 6.95 21.79 7.036 22.663 7.594 23.221 L 8.336 22.478 L 7.594 23.221 L 8.779 24.406 C 9.337 24.964 10.21 25.05 10.866 24.613 L 12.416 23.58 C 12.662 23.697 12.916 23.802 13.175 23.895 L 13.54 25.72 C 13.694 26.493 14.373 27.05 15.162 27.05 L 16.838 27.05 C 17.627 27.05 18.305 26.494 18.46 25.721 L 18.826 23.895 C 19.085 23.802 19.338 23.697 19.584 23.58 L 21.134 24.613 C 21.79 25.05 22.663 24.964 23.221 24.406 L 24.406 23.221 C 24.964 22.663 25.05 21.79 24.613 21.134 L 23.58 19.584 C 23.697 19.338 23.802 19.085 23.895 18.826 L 25.721 18.46 C 26.494 18.305 27.05 17.627 27.05 16.838 L 27.05 15.162 C 27.05 14.373 26.493 13.694 25.72 13.54 L 23.895 13.175 C 23.802 12.916 23.697 12.662 23.58 12.416 L 24.613 10.866 C 25.05 10.21 24.964 9.337 24.406 8.779 L 23.221 7.594 Z M 23.444 12.621 L 23.444 12.62 L 23.444 12.621 Z M 20.2 16 C 20.2 18.32 18.32 20.2 16 20.2 C 13.68 20.2 11.8 18.32 11.8 16 C 11.8 13.68 13.68 11.8 16 11.8 C 18.32 11.8 20.2 13.68 20.2 16 Z"
        fill="none"
        stroke="#ffffff"
        stroke-width="2.1"/>
</svg>
