<svg
    xmlns="http://www.w3.org/2000/svg"
    viewBox="0 0 24 24"
    id="vector">
    <path
        id="path"
        d="M 22.65 7.086 C 22.65 5.04 21.033 3.35 19 3.35 L 5 3.35 C 2.967 3.35 1.35 5.04 1.35 7.086 L 1.35 15.314 C 1.35 17.36 2.967 19.05 5 19.05 L 5.56 19.05 L 5.56 22.113 C 5.56 22.803 6.339 23.206 6.902 22.807 L 12.207 19.05 L 19 19.05 C 21.033 19.05 22.65 17.36 22.65 15.314 L 22.65 7.086 Z M 19 4.65 C 20.28 4.65 21.35 5.723 21.35 7.086 L 21.35 15.314 C 21.35 16.677 20.28 17.75 19 17.75 L 12.064 17.75 C 11.888 17.75 11.716 17.805 11.572 17.906 L 6.861 21.243 L 6.861 18.6 C 6.861 18.13 6.48 17.75 6.011 17.75 L 5 17.75 C 3.72 17.75 2.65 16.677 2.65 15.314 L 2.65 7.086 C 2.65 5.723 3.72 4.65 5 4.65 L 19 4.65 Z"
        fill="#000000"
        fill-rule="evenodd"/>
</svg>
