<svg
    xmlns="http://www.w3.org/2000/svg"
    viewBox="0 0 24 24"
    id="vector">
    <path
        id="path"
        d="M 12 5.5 L 11.54 5.96 L 12 6.42 L 12.46 5.96 L 12 5.5 Z M 18.5 5 L 18.122 5.529 L 18.5 5 Z M 12 20 L 11.674 20.563 C 11.882 20.683 12.138 20.679 12.342 20.553 L 12 20 Z M 5.5 5 L 5.11 4.48 L 5.5 5 Z M 12.46 5.96 C 12.856 5.563 13.733 5.046 14.808 4.844 C 15.862 4.646 17.047 4.761 18.122 5.529 L 18.878 4.471 C 17.453 3.454 15.888 3.318 14.568 3.567 C 13.267 3.811 12.144 4.437 11.54 5.04 L 12.46 5.96 Z M 18.122 5.529 C 19.664 6.63 20.544 8.479 19.875 10.821 C 19.19 13.221 16.849 16.234 11.658 19.447 L 12.342 20.553 C 17.651 17.266 20.31 14.03 21.125 11.179 C 21.955 8.271 20.836 5.869 18.878 4.471 L 18.122 5.529 Z M 12.326 19.438 C 7.646 16.728 5.168 13.832 4.301 11.348 C 3.451 8.911 4.131 6.84 5.89 5.52 L 5.11 4.48 C 2.87 6.16 2.049 8.839 3.074 11.777 C 4.082 14.667 6.854 17.771 11.674 20.563 L 12.326 19.438 Z M 5.89 5.52 C 6.871 4.784 8.047 4.662 9.134 4.859 C 10.24 5.059 11.152 5.571 11.54 5.959 L 12.46 5.04 C 11.848 4.429 10.676 3.817 9.365 3.58 C 8.035 3.339 6.461 3.467 5.11 4.48 L 5.89 5.52 Z"
        fill="#8b93b1"/>
</svg>
